<svg id="Layer_1" data-name="Layer 1" xmlns="http://www.w3.org/2000/svg" xmlns:xlink="http://www.w3.org/1999/xlink" viewBox="0 0 125.5 43.5"><defs><style>.cls-1,.cls-6{fill:none;}.cls-2{clip-path:url(#clip-path);}.cls-3{fill:#2f5baa;}.cls-4{fill:#e08937;}.cls-5{fill:#231f20;}.cls-6{stroke:#231f20;stroke-width:0.25px;}</style><clipPath id="clip-path"><rect class="cls-1" x="-12.5" y="-23.5" width="270" height="162"/></clipPath></defs><title>Artboard 1</title><g class="cls-2"><path class="cls-3" d="M4.7,37.42a2.6,2.6,0,0,0,1.07.24c.76,0,1.23-.34,1.23-.84s-.31-.71-1-.94-1.31-.55-1.31-1.12.64-1,1.51-1a2.21,2.21,0,0,1,1,.18L7,34.16A2.1,2.1,0,0,0,6.17,34c-.8,0-1.1.4-1.1.72s.35.67,1.06.91,1.25.62,1.25,1.18-.59,1.1-1.64,1.1a2.79,2.79,0,0,1-1.18-.25Z"/><path class="cls-3" d="M11.38,36.39A1.53,1.53,0,0,1,9.71,37.9,1.47,1.47,0,0,1,8.1,36.42,1.52,1.52,0,0,1,9.76,34.9a1.47,1.47,0,0,1,1.62,1.49m-2.89,0a1.23,1.23,0,0,0,1.24,1.26A1.25,1.25,0,0,0,11,36.39a1.25,1.25,0,1,0-2.5,0"/><rect class="cls-3" x="12.3" y="33.61" width="0.38" height="4.23"/><path class="cls-3" d="M16.66,37.13c0,.28,0,.5,0,.71h-.35l0-.45h0a1.48,1.48,0,0,1-1.19.51,1.09,1.09,0,0,1-1.2-1.2V35h.37v1.68c0,.59.22,1,.92,1a1.15,1.15,0,0,0,1-.56.94.94,0,0,0,.05-.3V35h.38Z"/><path class="cls-3" d="M18.39,34.33V35h1v.23h-1v1.9c0,.37.16.57.53.57a1.21,1.21,0,0,0,.38,0l.05.22a1.9,1.9,0,0,1-.49.06.91.91,0,0,1-.63-.19A.87.87,0,0,1,18,37V35.19H17.4V35H18v-.51Z"/><path class="cls-3" d="M20.67,34.17c0,.13-.11.24-.31.24a.27.27,0,0,1-.29-.24c0-.14.14-.24.31-.24s.29.1.29.24m-.49.79h.38v2.88h-.38Z"/><path class="cls-3" d="M24.77,36.39A1.53,1.53,0,0,1,23.1,37.9a1.47,1.47,0,0,1-1.61-1.48,1.52,1.52,0,0,1,1.66-1.52,1.47,1.47,0,0,1,1.62,1.49m-2.89,0a1.23,1.23,0,0,0,1.24,1.26,1.25,1.25,0,0,0,1.26-1.28,1.25,1.25,0,1,0-2.5,0"/><path class="cls-3" d="M25.69,35.65a6.87,6.87,0,0,0,0-.69H26l0,.48h0a1.41,1.41,0,0,1,1.21-.54A1.13,1.13,0,0,1,28.49,36v1.8h-.38V36.09a.85.85,0,0,0-1-1,1.08,1.08,0,0,0-1,.65.93.93,0,0,0,0,.25v1.8h-.38Z"/><path class="cls-3" d="M29.52,37.47a1.88,1.88,0,0,0,.8.19c.56,0,.84-.24.84-.54s-.21-.48-.73-.66-.94-.43-.94-.79.44-.77,1.13-.77a1.7,1.7,0,0,1,.81.18l-.16.23a1.36,1.36,0,0,0-.7-.17c-.46,0-.71.23-.71.48s.23.41.72.59,1,.42,1,.86-.52.83-1.25.83a2,2,0,0,1-.9-.2Z"/><rect class="cls-4" x="34.17" y="33.34" width="0.35" height="6"/><path class="cls-3" d="M37.44,33.85a7.23,7.23,0,0,1,1.06-.08,2.3,2.3,0,0,1,1.37.32.92.92,0,0,1,.38.74c0,.55-.42.88-1,1.05h0a1.09,1.09,0,0,1,.83.9,3.85,3.85,0,0,0,.38,1.05H40a5.05,5.05,0,0,1-.33-1A1.07,1.07,0,0,0,38.52,36h-.7v1.85h-.38Zm.38,1.92h.71c.8,0,1.33-.36,1.33-.9S39.34,34,38.49,34a3.35,3.35,0,0,0-.67,0Z"/><path class="cls-3" d="M41.36,36.35a1.2,1.2,0,0,0,1.34,1.31,2.55,2.55,0,0,0,.95-.15l.09.21a2.81,2.81,0,0,1-1.09.18A1.47,1.47,0,0,1,41,36.44a1.49,1.49,0,0,1,1.59-1.54A1.24,1.24,0,0,1,44,36.18a.91.91,0,0,1,0,.17Zm2.19-.22a.93.93,0,0,0-1-1,1.11,1.11,0,0,0-1.14,1Z"/><path class="cls-3" d="M44.7,37.47a1.88,1.88,0,0,0,.8.19c.55,0,.84-.24.84-.54s-.21-.48-.74-.66-.93-.43-.93-.79.44-.77,1.13-.77a1.69,1.69,0,0,1,.8.18l-.15.23a1.36,1.36,0,0,0-.7-.17c-.47,0-.71.23-.71.48s.23.41.72.59,1,.42,1,.86-.52.83-1.25.83a2.11,2.11,0,0,1-.91-.2Z"/><path class="cls-3" d="M50.38,37.13c0,.28,0,.5,0,.71h-.35l0-.45h0a1.5,1.5,0,0,1-1.19.51,1.1,1.1,0,0,1-1.21-1.2V35H48v1.68c0,.59.21,1,.92,1a1.11,1.11,0,0,0,1-.56.73.73,0,0,0,.06-.3V35h.38Z"/><rect class="cls-3" x="51.59" y="33.61" width="0.38" height="4.23"/><path class="cls-3" d="M53.73,34.33V35h1v.23h-1v1.9c0,.37.17.57.54.57a1.14,1.14,0,0,0,.37,0l0,.22a1.82,1.82,0,0,1-.48.06.91.91,0,0,1-.63-.19.84.84,0,0,1-.22-.68V35.19h-.62V35h.62v-.51Z"/><path class="cls-3" d="M55.37,37.47a1.88,1.88,0,0,0,.8.19c.55,0,.84-.24.84-.54s-.21-.48-.74-.66-.93-.43-.93-.79.44-.77,1.13-.77a1.69,1.69,0,0,1,.8.18l-.15.23a1.36,1.36,0,0,0-.7-.17c-.47,0-.71.23-.71.48s.23.41.72.59,1,.42,1,.86-.52.83-1.25.83a2.11,2.11,0,0,1-.91-.2Z"/><rect class="cls-4" x="60.01" y="33.34" width="0.35" height="6"/><path class="cls-3" d="M63.13,37.42a2.55,2.55,0,0,0,1.06.24c.76,0,1.24-.34,1.24-.84s-.32-.71-1-.94-1.3-.55-1.3-1.12.64-1,1.51-1a2.25,2.25,0,0,1,1,.18l-.15.23a2.1,2.1,0,0,0-.87-.17c-.8,0-1.09.4-1.09.72s.35.67,1,.91,1.26.62,1.26,1.18-.59,1.1-1.64,1.1A2.72,2.72,0,0,1,63,37.65Z"/><path class="cls-3" d="M69.5,37.13c0,.28,0,.5,0,.71h-.35l0-.45h0A1.48,1.48,0,0,1,68,37.9a1.09,1.09,0,0,1-1.2-1.2V35h.37v1.68c0,.59.22,1,.92,1a1.15,1.15,0,0,0,1-.56.94.94,0,0,0,.05-.3V35h.38Z"/><path class="cls-3" d="M73.14,37.73a3,3,0,0,1-1,.17,1.52,1.52,0,0,1-1.72-1.47,1.63,1.63,0,0,1,1.84-1.53,2.24,2.24,0,0,1,.88.16l-.13.23a2.14,2.14,0,0,0-.79-.14,1.27,1.27,0,0,0-1.41,1.27,1.25,1.25,0,0,0,1.39,1.24,2.38,2.38,0,0,0,.84-.15Z"/><path class="cls-3" d="M76.37,37.73a2.91,2.91,0,0,1-1,.17,1.51,1.51,0,0,1-1.71-1.47,1.63,1.63,0,0,1,1.83-1.53,2.26,2.26,0,0,1,.89.16l-.13.23a2.2,2.2,0,0,0-.8-.14A1.27,1.27,0,0,0,74,36.42a1.26,1.26,0,0,0,1.4,1.24,2.32,2.32,0,0,0,.83-.15Z"/><path class="cls-3" d="M77.27,36.35a1.2,1.2,0,0,0,1.34,1.31,2.55,2.55,0,0,0,1-.15l.1.21a2.9,2.9,0,0,1-1.09.18,1.51,1.51,0,1,1-.09-3,1.24,1.24,0,0,1,1.38,1.28.91.91,0,0,1,0,.17Zm2.19-.22a.92.92,0,0,0-1-1,1.11,1.11,0,0,0-1.14,1Z"/><path class="cls-3" d="M80.61,37.47a1.88,1.88,0,0,0,.8.19c.55,0,.84-.24.84-.54s-.21-.48-.74-.66-.93-.43-.93-.79.44-.77,1.13-.77a1.69,1.69,0,0,1,.8.18l-.15.23a1.36,1.36,0,0,0-.7-.17c-.47,0-.71.23-.71.48s.23.41.72.59,1,.42,1,.86-.52.83-1.25.83a2.11,2.11,0,0,1-.91-.2Z"/><path class="cls-3" d="M83.4,37.47a1.88,1.88,0,0,0,.8.19c.56,0,.84-.24.84-.54s-.21-.48-.73-.66-.94-.43-.94-.79.44-.77,1.13-.77a1.7,1.7,0,0,1,.81.18l-.16.23a1.36,1.36,0,0,0-.7-.17c-.46,0-.71.23-.71.48s.23.41.72.59,1,.42,1,.86-.52.83-1.25.83a2,2,0,0,1-.9-.2Z"/><rect class="cls-4" x="88.05" y="33.34" width="0.35" height="6"/><path class="cls-3" d="M91.16,37.42a2.56,2.56,0,0,0,1.07.24c.76,0,1.23-.34,1.23-.84s-.32-.71-1-.94-1.3-.55-1.3-1.12.64-1,1.51-1a2.21,2.21,0,0,1,1,.18l-.14.23a2.1,2.1,0,0,0-.87-.17c-.81,0-1.1.4-1.1.72s.35.67,1.06.91,1.25.62,1.25,1.18-.59,1.1-1.64,1.1A2.79,2.79,0,0,1,91,37.65Z"/><path class="cls-3" d="M95.3,34.17c0,.13-.12.24-.31.24a.26.26,0,0,1-.29-.24c0-.14.13-.24.3-.24s.3.1.3.24m-.49.79h.37v2.88h-.37Z"/><path class="cls-3" d="M96.4,35.65c0-.3,0-.46,0-.69h.35l0,.48h0A1.41,1.41,0,0,1,98,34.9,1.13,1.13,0,0,1,99.2,36v1.8h-.38V36.09a.85.85,0,0,0-1-1,1.08,1.08,0,0,0-1,.65.66.66,0,0,0,0,.25v1.8H96.4Z"/><path class="cls-3" d="M102.82,37.73a3,3,0,0,1-1,.17,1.52,1.52,0,0,1-1.72-1.47,1.63,1.63,0,0,1,1.84-1.53,2.24,2.24,0,0,1,.88.16l-.13.23a2.14,2.14,0,0,0-.79-.14,1.27,1.27,0,0,0-1.41,1.27,1.25,1.25,0,0,0,1.39,1.24,2.38,2.38,0,0,0,.84-.15Z"/><path class="cls-3" d="M103.71,36.35a1.21,1.21,0,0,0,1.35,1.31,2.64,2.64,0,0,0,1-.15l.09.21a2.85,2.85,0,0,1-1.09.18,1.51,1.51,0,1,1-.08-3,1.24,1.24,0,0,1,1.37,1.28v.17Zm2.19-.22a.92.92,0,0,0-1-1,1.12,1.12,0,0,0-1.15,1Z"/><polygon class="cls-3" points="110.07 34.24 110.05 34.24 109.19 34.62 109.09 34.4 110.11 33.94 110.44 33.94 110.44 37.84 110.07 37.84 110.07 34.24"/><path class="cls-3" d="M112.65,37.64a2.47,2.47,0,0,0,.52,0,2.05,2.05,0,0,0,1-.42,2,2,0,0,0,.71-1.25h0a1.78,1.78,0,0,1-1.24.46,1.24,1.24,0,0,1-1.4-1.17,1.44,1.44,0,0,1,1.55-1.35,1.45,1.45,0,0,1,1.49,1.61,2.3,2.3,0,0,1-.81,1.81,2.55,2.55,0,0,1-1.23.55,3.82,3.82,0,0,1-.62,0Zm0-2.42c0,.6.45.94,1.09.94a1.43,1.43,0,0,0,1.13-.48.44.44,0,0,0,.06-.16c0-.88-.41-1.4-1.18-1.4a1,1,0,0,0-1.1,1.1"/><path class="cls-3" d="M116.33,37.64a2.47,2.47,0,0,0,.52,0,2.12,2.12,0,0,0,1.05-.42,2,2,0,0,0,.7-1.25h0a1.79,1.79,0,0,1-1.25.46A1.23,1.23,0,0,1,116,35.23a1.43,1.43,0,0,1,1.55-1.35A1.45,1.45,0,0,1,119,35.49a2.3,2.3,0,0,1-.81,1.81,2.59,2.59,0,0,1-1.23.55,3.91,3.91,0,0,1-.62,0Zm0-2.42c0,.6.45.94,1.09.94a1.43,1.43,0,0,0,1.13-.48.43.43,0,0,0,0-.16c0-.88-.41-1.4-1.17-1.4a1,1,0,0,0-1.1,1.1"/><path class="cls-3" d="M119.63,37.84v-.17l.46-.39c1.22-.93,1.93-1.57,1.93-2.29,0-.46-.26-.86-1-.86a1.82,1.82,0,0,0-1,.31l-.16-.2a2.25,2.25,0,0,1,1.24-.36c1,0,1.36.56,1.36,1.07,0,.75-.72,1.42-1.86,2.32l-.38.32h2.38v.24Z"/><path class="cls-5" d="M106.67,9.15h9.24c3.06,0,4.14.88,4.14,3v2.66c0,2.16-1.08,3-4.14,3h-9.24Zm3.06,6.5h5.44c1.31,0,1.82-.33,1.82-1.57V12.89c0-1.24-.51-1.57-1.82-1.57h-5.44Z"/><polygon class="cls-5" points="34.28 9.15 45.2 9.15 45.2 11.18 37.34 11.18 37.34 12.58 44.79 12.58 44.79 14.39 37.34 14.39 37.34 15.79 45.38 15.79 45.38 17.89 34.28 17.89 34.28 9.15"/><path class="cls-5" d="M47.06,9.15h9.23c2.36,0,3,1,3,2.6v.55a1.84,1.84,0,0,1-1.71,2.15v0a1.69,1.69,0,0,1,1.67,1.93v1.48H56.18V16.84c0-.92-.3-1.22-1.25-1.22H50.12v2.27H47.06Zm3.06,4.3h5.06c.82,0,1.13-.29,1.13-.92v-.29c0-.77-.44-.91-1.41-.91H50.12Z"/><polygon class="cls-5" points="60.28 9.15 63.27 9.15 65.4 15.57 65.42 15.57 67.96 9.15 70.8 9.15 73.34 15.57 73.37 15.57 75.49 9.15 78.48 9.15 75.24 17.89 71.73 17.89 69.4 12.12 69.37 12.12 67.04 17.89 63.52 17.89 60.28 9.15"/><path class="cls-5" d="M79.81,11.65c0-2.1,1.35-2.6,3.61-2.6h4c2.26,0,3.61.5,3.61,2.6v2.14c0,2.1-1.35,2.6-3.61,2.6h-4c-2.26,0-3.61-.5-3.61-2.6Zm2.58,1.46c0,1,.25,1.43,1.44,1.43H87c1.19,0,1.44-.39,1.44-1.43v-.78c0-.89-.25-1.43-1.57-1.43H84c-1.32,0-1.57.54-1.57,1.43Z"/><path class="cls-5" d="M93.12,11.65c0-2.1,1.35-2.6,3.61-2.6h4c2.26,0,3.61.5,3.61,2.6v2.14c0,2.1-1.35,2.6-3.61,2.6h-4c-2.26,0-3.61-.5-3.61-2.6Zm2.58,1.46c0,1,.25,1.43,1.44,1.43h3.21c1.19,0,1.44-.39,1.44-1.43v-.78c0-.89-.25-1.43-1.57-1.43H97.28c-1.33,0-1.58.54-1.58,1.43Z"/><rect class="cls-3" x="79.62" y="16.99" width="24.77" height="0.29"/><path class="cls-5" d="M106.67,9.15h9.24c3.06,0,4.14.88,4.14,3v2.66c0,2.16-1.08,3-4.14,3h-9.24Zm3.06,6.5h5.44c1.31,0,1.82-.33,1.82-1.57V12.89c0-1.24-.51-1.57-1.82-1.57h-5.44Z"/><path class="cls-4" d="M13.67,16C14.32,16,15,16,15,15.29s-.36-.81-4.3-.81h-.51L9.86,16h3.81Z"/><path class="cls-4" d="M29.32,17.89V14.58H22.86v3.31H19.8V9.15h3.06v3.11h6.46V9.15h.86V2.8L11.86,6l-.61,3.1h2.6c3.53,0,3.86,1,3.86,2.58v.28H14.65c0-.64-.08-.91-1.49-.91h-2.3l-.29,1.45c.46,0,1,0,1.7,0,4.75,0,5.86.24,5.86,2.79,0,2.36-.91,2.74-5,2.74H9.48L8.12,24.85H30.18v-7Z"/><polygon class="cls-5" points="34.28 9.15 45.2 9.15 45.2 11.18 37.34 11.18 37.34 12.58 44.79 12.58 44.79 14.39 37.34 14.39 37.34 15.79 45.38 15.79 45.38 17.89 34.28 17.89 34.28 9.15"/><path class="cls-5" d="M47.06,9.15h9.23c2.36,0,3,1,3,2.6v.55a1.84,1.84,0,0,1-1.71,2.15v0a1.69,1.69,0,0,1,1.67,1.93v1.48H56.18V16.84c0-.92-.3-1.22-1.25-1.22H50.12v2.27H47.06Zm3.06,4.3h5.06c.82,0,1.13-.29,1.13-.92v-.29c0-.77-.44-.91-1.41-.91H50.12Z"/><polygon class="cls-5" points="60.28 9.15 63.27 9.15 65.4 15.57 65.42 15.57 67.96 9.15 70.8 9.15 73.34 15.57 73.37 15.57 75.49 9.15 78.48 9.15 75.24 17.89 71.73 17.89 69.4 12.12 69.37 12.12 67.04 17.89 63.52 17.89 60.28 9.15"/><path class="cls-5" d="M79.81,11.65c0-2.1,1.35-2.6,3.61-2.6h4c2.26,0,3.61.5,3.61,2.6v2.14c0,2.1-1.35,2.6-3.61,2.6h-4c-2.26,0-3.61-.5-3.61-2.6Zm2.58,1.46c0,1,.25,1.43,1.44,1.43H87c1.19,0,1.44-.39,1.44-1.43v-.78c0-.89-.25-1.43-1.57-1.43H84c-1.32,0-1.57.54-1.57,1.43Z"/><path class="cls-5" d="M93.12,11.65c0-2.1,1.35-2.6,3.61-2.6h4c2.26,0,3.61.5,3.61,2.6v2.14c0,2.1-1.35,2.6-3.61,2.6h-4c-2.26,0-3.61-.5-3.61-2.6Zm2.58,1.46c0,1,.25,1.43,1.44,1.43h3.21c1.19,0,1.44-.39,1.44-1.43v-.78c0-.89-.25-1.43-1.57-1.43H97.28c-1.33,0-1.58.54-1.58,1.43Z"/><path class="cls-6" d="M5.54,15H8.6c0,.93.44,1,1.32,1h3.75C14.32,16,15,16,15,15.29s-.36-.81-4.3-.81c-4.6,0-5.13-.48-5.13-2.63,0-1.58.17-2.8,4-2.8h4.27c3.53,0,3.86,1,3.86,2.58v.28H14.65c0-.64-.08-.91-1.49-.91H9.77c-.69,0-1.16.21-1.16.68,0,.76.37.78,3.66.77,4.75,0,5.86.24,5.86,2.79,0,2.36-.91,2.74-5,2.74H9.44c-2.79,0-3.9-.46-3.9-2.35Z"/><polygon class="cls-6" points="19.8 9.14 22.86 9.14 22.86 12.26 29.32 12.26 29.32 9.14 32.38 9.14 32.38 17.89 29.32 17.89 29.32 14.58 22.86 14.58 22.86 17.89 19.8 17.89 19.8 9.14"/><path class="cls-5" d="M81,21.63a6.09,6.09,0,0,1,1.16-.11,2,2,0,0,1,1.42.46A1.39,1.39,0,0,1,84,23a1.49,1.49,0,0,1-.38,1.07,2,2,0,0,1-1.58.6,2.28,2.28,0,0,1-.66-.06V27H81Zm.38,2.68a2.08,2.08,0,0,0,.69.08c1,0,1.54-.46,1.54-1.31s-.61-1.24-1.47-1.24a3.89,3.89,0,0,0-.76.07Z"/><path class="cls-5" d="M87.14,26a5.43,5.43,0,0,0,0,.91h-.35l-.06-.55h0a1.46,1.46,0,0,1-1.23.64A1,1,0,0,1,84.41,26c0-.89.78-1.43,2.34-1.41v-.11c0-.37-.07-1.13-1-1.12a1.74,1.74,0,0,0-1,.28l-.12-.27A2,2,0,0,1,85.81,23c1.11,0,1.33.83,1.33,1.51Zm-.39-1.14c-.84,0-1.94.1-1.94,1a.74.74,0,0,0,.77.8A1.14,1.14,0,0,0,86.71,26a.66.66,0,0,0,0-.23Z"/><path class="cls-5" d="M88.37,24.27c0-.39,0-.78,0-1.15h.35l0,.77h0A1.19,1.19,0,0,1,89.82,23H90v.37h-.19c-.52,0-.9.45-1,1.07a1.45,1.45,0,0,0,0,.37V27h-.38Z"/><path class="cls-5" d="M91.47,22.27v.85h1.1v.31h-1.1v2.49c0,.49.16.79.56.79a1.51,1.51,0,0,0,.44-.05l0,.29A1.45,1.45,0,0,1,92,27a.81.81,0,0,1-.66-.27,1.38,1.38,0,0,1-.24-.92V23.43h-.65v-.31h.65v-.71Z"/><path class="cls-5" d="M93.42,24c0-.36,0-.62,0-.92h.36l0,.69h0A1.43,1.43,0,0,1,95.1,23c.37,0,1.35.18,1.35,1.62V27h-.39V24.68c0-.69-.27-1.32-1.06-1.32a1.22,1.22,0,0,0-1.15.88,1.63,1.63,0,0,0,0,.34V27h-.38Z"/><path class="cls-5" d="M97.76,25c0,1.23.67,1.72,1.47,1.72a2.3,2.3,0,0,0,1.06-.22l.09.3a2.52,2.52,0,0,1-1.2.24,1.75,1.75,0,0,1-1.79-1.92c0-1.28.73-2.08,1.72-2.08a1.56,1.56,0,0,1,1.5,1.73.75.75,0,0,1,0,.23Zm2.45-.3a1.17,1.17,0,0,0-1.15-1.34,1.37,1.37,0,0,0-1.28,1.34Z"/><path class="cls-5" d="M101.58,24.27c0-.39,0-.78,0-1.15h.35v.77h0A1.18,1.18,0,0,1,103,23h.16v.37H103c-.53,0-.9.45-1,1.07a2.13,2.13,0,0,0,0,.37V27h-.38Z"/><path class="cls-5" d="M103.79,26.45a1.65,1.65,0,0,0,.86.26c.61,0,.89-.32.89-.72s-.25-.65-.8-.88-1-.58-1-1a1.08,1.08,0,0,1,1.18-1,1.46,1.46,0,0,1,.85.24l-.14.31a1.3,1.3,0,0,0-.77-.23.66.66,0,0,0-.74.66c0,.4.27.58.79.79s1,.55,1,1.14-.51,1.09-1.3,1.09a1.89,1.89,0,0,1-1-.26Z"/><path class="cls-5" d="M106.4,28a10.42,10.42,0,0,0,.42-1.69l.5-.08a10.22,10.22,0,0,1-.61,1.73Z"/><rect class="cls-5" x="109.99" y="21.57" width="0.38" height="5.39"/><path class="cls-5" d="M111.79,24c0-.36,0-.62,0-.92h.36l0,.69h0a1.46,1.46,0,0,1,1.32-.78c.37,0,1.34.18,1.34,1.62V27h-.38V24.68c0-.69-.27-1.32-1.06-1.32a1.24,1.24,0,0,0-1.16.88,1.67,1.67,0,0,0,0,.34V27h-.39Z"/><path class="cls-5" d="M118.73,26.79a2.67,2.67,0,0,1-1.13.24,1.81,1.81,0,0,1-1.84-2,1.93,1.93,0,0,1,2-2,1.87,1.87,0,0,1,1,.24l-.13.31a1.88,1.88,0,0,0-.91-.22A1.54,1.54,0,0,0,116.14,25a1.52,1.52,0,0,0,1.52,1.67,2,2,0,0,0,1-.23Z"/><path class="cls-5" d="M119.35,26.68a.33.33,0,0,1,.32-.36.32.32,0,0,1,.32.36.33.33,0,0,1-.33.36.32.32,0,0,1-.31-.36"/></g></svg>